# xmcd
#
# Track frame offsets: 
#        300
#        9204
#        19302
#        30109
#        42869
#        52176
#        60096
#        70774
#        80574
#        90921
#        100747
#        112320
#        124196
#        135166
#        145577
#        155066
#        166261
#        175198
#        183974
#        191965
#
# Disc length: 2692 seconds
#
# Revision: 2
# Processed by: cddbd v1.5.2PL0 Copyright (c) Steve Scherf et al.
# Submitted via: ExactAudioCopy v1.0b1
#
DISCID=fc0a8014
DTITLE=The Spotnicks - The Spotnicks In Berlin
DYEAR=1964
DGENRE=Instrumental Surf Rock
TTITLE0=I Gotta Baby
TTITLE1=Blues Stay Away From Me
TTITLE2=Shamus O´toole
TTITLE3=Just A Dream
TTITLE4=Divided City
TTITLE5=Doctor Feelgod
TTITLE6=Namenlos
TTITLE7=Funny Mae
TTITLE8=Ku´damm Promenade
TTITLE9=Memphis Tennessee
TTITLE10=Touch Me
TTITLE11=Walking Back To Happiness
TTITLE12=Karelia
TTITLE13=All Right
TTITLE14=Your Cheating Heart
TTITLE15=My Babe
TTITLE16=Cumberland Gap
TTITLE17=Dang Me
TTITLE18=Great Balls Of Fire
TTITLE19=Blues Stay Away From Me*
EXTD=
EXTT0=
EXTT1=
EXTT2=
EXTT3=
EXTT4=
EXTT5=
EXTT6=
EXTT7=
EXTT8=
EXTT9=
EXTT10=
EXTT11=
EXTT12=
EXTT13=
EXTT14=
EXTT15=
EXTT16=
EXTT17=
EXTT18=
EXTT19=
PLAYORDER=
